<?xml version="1.0" standalone="no"?>
<!DOCTYPE svg PUBLIC "-//W3C//DTD SVG 20010904//EN"
 "http://www.w3.org/TR/2001/REC-SVG-20010904/DTD/svg10.dtd">
<svg version="1.0" xmlns="http://www.w3.org/2000/svg"
 width="512.000000pt" height="512.000000pt" viewBox="0 0 512.000000 512.000000"
 preserveAspectRatio="xMidYMid meet">

<g transform="translate(0.000000,512.000000) scale(0.100000,-0.100000)"
fill="#000000" stroke="none">
<path d="M2271 4867 c41 -31 114 -116 106 -123 -2 -2 -21 5 -43 15 -117 57
-270 72 -373 37 l-54 -19 36 -12 c20 -7 49 -21 64 -31 l28 -19 -25 -2 c-178
-20 -263 -67 -455 -253 -66 -63 -138 -129 -159 -146 -100 -78 65 -71 175 7 17
12 32 19 34 17 2 -2 -22 -37 -53 -78 -81 -108 -210 -231 -281 -269 -34 -18
-61 -38 -61 -46 0 -18 66 -28 154 -23 l66 3 -7 -60 c-11 -86 -8 -230 7 -308
13 -70 24 -84 34 -42 5 20 62 64 70 53 1 -2 8 -61 15 -133 7 -71 22 -175 34
-230 l22 -100 7 90 c33 391 65 660 99 823 25 122 149 146 533 101 100 -11 206
-18 236 -15 75 7 185 64 252 129 29 29 62 56 71 60 30 11 84 -19 117 -65 75
-102 107 -222 120 -458 14 -231 34 -413 74 -649 l32 -195 33 54 c45 74 76 159
102 282 18 87 22 144 25 363 5 330 5 326 -6 365 -6 20 -5 51 1 83 9 48 6 102
-8 152 -5 17 -4 18 11 6 14 -12 16 -11 16 3 0 29 -28 73 -67 105 l-38 31 34 0
c34 0 34 0 15 21 -30 33 -92 60 -150 66 -30 3 -54 9 -54 14 0 7 42 23 85 32
30 6 -48 39 -107 45 -40 4 -131 -17 -194 -44 -6 -3 -29 25 -50 62 -21 37 -70
100 -107 140 -122 131 -248 194 -389 194 l-70 0 43 -33z m969 -1292 c28 -30
37 -102 20 -165 -14 -53 -78 -120 -114 -120 -23 0 -23 2 -25 122 0 67 2 137 5
155 6 31 9 33 48 33 32 0 48 -6 66 -25z"/>
<path d="M2810 3934 c-193 -42 -316 -107 -297 -157 5 -14 18 -12 104 19 119
43 215 64 293 64 32 0 61 4 65 10 3 5 -1 25 -9 45 -14 32 -19 35 -53 34 -21
-1 -67 -7 -103 -15z"/>
<path d="M1725 3822 c-20 -5 -31 -15 -35 -32 -8 -34 0 -62 16 -56 63 24 113
30 242 29 115 -1 142 2 142 13 0 7 -12 22 -27 31 -22 15 -52 18 -168 20 -77 1
-153 -2 -170 -5z"/>
<path d="M2729 3562 c-39 -34 -44 -88 -12 -129 19 -26 25 -28 84 -25 53 2 68
7 87 28 81 90 -67 208 -159 126z m54 -4 c6 -19 -3 -38 -18 -38 -18 0 -28 17
-21 35 7 18 33 20 39 3z"/>
<path d="M1870 3543 c-107 -42 -78 -198 34 -186 74 8 85 13 102 44 20 40 12
88 -20 118 -24 23 -87 36 -116 24z m97 -29 c8 -21 -13 -42 -28 -27 -13 13 -5
43 11 43 6 0 13 -7 17 -16z"/>
<path d="M2780 2296 c0 -158 -193 -895 -221 -844 -4 7 -35 118 -70 246 l-63
233 19 35 c21 39 79 102 115 126 45 29 13 40 -122 42 -67 2 -133 6 -144 10
-15 6 -23 3 -28 -9 -4 -12 7 -30 38 -59 24 -22 53 -61 66 -85 l22 -43 -43
-232 c-23 -127 -45 -240 -49 -250 -18 -49 -132 357 -187 660 -21 120 -30 152
-38 139 -15 -25 -84 -114 -123 -159 -31 -34 -32 -40 -19 -54 14 -13 12 -17
-16 -36 -68 -46 -135 -176 -191 -367 -38 -133 -71 -289 -140 -669 -88 -478
-108 -564 -162 -672 -27 -52 -25 -55 46 -81 34 -13 79 -17 177 -17 116 0 133
2 141 18 5 9 20 69 33 132 l24 115 3 -62 c2 -34 -1 -92 -6 -129 -6 -46 -6 -67
2 -70 6 -2 270 -3 586 -2 l575 3 12 245 c6 135 19 326 27 425 21 235 76 746
81 763 8 21 97 -33 176 -106 156 -145 240 -363 216 -566 -20 -175 -133 -289
-314 -318 -38 -6 -73 -16 -80 -22 -19 -17 -23 -394 -5 -401 30 -11 133 -4 205
14 151 39 295 121 402 229 277 281 251 719 -72 1225 -118 185 -331 347 -548
417 -70 22 -128 60 -247 162 -31 26 -61 48 -67 48 -6 0 -11 -15 -11 -34z"/>
</g>
</svg>
