<?xml version="1.0" encoding="UTF-8"?>
<!DOCTYPE svg PUBLIC "-//W3C//DTD SVG 1.1//EN" "http://www.w3.org/Graphics/SVG/1.1/DTD/svg11.dtd">
<svg xmlns="http://www.w3.org/2000/svg" version="1.1" width="512px" height="512px" style="shape-rendering:geometricPrecision; text-rendering:geometricPrecision; image-rendering:optimizeQuality; fill-rule:evenodd; clip-rule:evenodd" xmlns:xlink="http://www.w3.org/1999/xlink">
<g><path style="opacity:0.012" fill="#594742" d="M 221.5,19.5 C 226.316,18.3503 231.316,18.1837 236.5,19C 231.511,19.4993 226.511,19.6659 221.5,19.5 Z"/></g>
<g><path style="opacity:0.012" fill="#54443f" d="M 237.5,20.5 C 238.251,19.4265 239.251,19.2599 240.5,20C 239.552,20.4828 238.552,20.6495 237.5,20.5 Z"/></g>
<g><path style="opacity:0.994" fill="#68442d" d="M 237.5,20.5 C 240.051,21.4844 242.718,22.4844 245.5,23.5C 246.167,23.1667 246.833,22.8333 247.5,22.5C 247.109,23.8905 247.942,24.8905 250,25.5C 250.718,24.5494 251.551,24.3828 252.5,25C 251.167,25.6667 251.167,26.3333 252.5,27C 254.055,28.6458 255.721,28.9791 257.5,28C 256.346,28.9138 256.513,29.7471 258,30.5C 258.718,29.5494 259.551,29.3828 260.5,30C 260.574,32.3153 261.908,34.1486 264.5,35.5C 264.5,36.1667 264.833,36.5 265.5,36.5C 265.5,37.1667 265.833,37.5 266.5,37.5C 266.5,38.1667 266.833,38.5 267.5,38.5C 267.5,39.1667 267.833,39.5 268.5,39.5C 270.167,41.8333 272.167,43.8333 274.5,45.5C 276.919,50.0086 279.586,54.342 282.5,58.5C 282.711,60.4241 283.377,60.7574 284.5,59.5C 289.968,57.4058 295.635,56.0724 301.5,55.5C 306.593,56.2857 311.26,57.2857 315.5,58.5C 314.167,58.8333 314.167,59.1667 315.5,59.5C 315.953,60.4584 316.619,61.2917 317.5,62C 316.551,62.6172 315.718,62.4506 315,61.5C 313.259,63.0422 311.426,63.8755 309.5,64C 313.325,64.7056 316.992,65.8723 320.5,67.5C 321.451,66.6744 322.451,66.5078 323.5,67C 324.279,70.0045 326.279,72.5045 329.5,74.5C 329.249,76.1703 328.582,77.6703 327.5,79C 328.373,80.045 329.373,80.8783 330.5,81.5C 330.66,83.153 331.326,84.4863 332.5,85.5C 332.431,90.8537 332.098,96.187 331.5,101.5C 330.549,102.919 330.216,104.585 330.5,106.5C 329.167,107.833 329.167,109.167 330.5,110.5C 330.781,114.188 331.281,117.855 332,121.5C 332.383,122.056 332.883,122.389 333.5,122.5C 333.665,125.518 333.498,128.518 333,131.5C 332.667,128.833 332.333,126.167 332,123.5C 331.417,127.832 330.917,132.165 330.5,136.5C 329.167,137.167 329.167,137.833 330.5,138.5C 330.584,145.01 330.917,151.51 331.5,158C 330.863,166.508 330.196,175.008 329.5,183.5C 328.549,184.919 328.216,186.585 328.5,188.5C 327.566,189.568 327.232,190.901 327.5,192.5C 326.566,193.568 326.232,194.901 326.5,196.5C 325.596,197.209 325.263,198.209 325.5,199.5C 324.596,200.209 324.263,201.209 324.5,202.5C 323.662,202.842 323.328,203.508 323.5,204.5C 322.069,205.78 321.402,207.447 321.5,209.5C 320.833,209.5 320.5,209.833 320.5,210.5C 319.662,210.842 319.328,211.508 319.5,212.5C 318.662,212.842 318.328,213.508 318.5,214.5C 317.833,214.5 317.5,214.833 317.5,215.5C 316.662,215.842 316.328,216.508 316.5,217.5C 315.833,217.5 315.5,217.833 315.5,218.5C 315.167,218.5 314.833,218.5 314.5,218.5C 307.886,186.921 303.886,154.921 302.5,122.5C 302.098,107.782 297.098,94.9486 287.5,84C 284.332,81.3666 280.998,81.0333 277.5,83C 266.271,97.1923 251.604,103.192 233.5,101C 216.954,97.9534 200.287,96.9534 183.5,98C 178.937,98.9004 175.104,101.067 172,104.5C 168.226,120.636 165.726,136.969 164.5,153.5C 162.285,169.879 160.618,186.213 159.5,202.5C 159.672,201.508 159.338,200.842 158.5,200.5C 158.768,198.901 158.434,197.568 157.5,196.5C 157.706,193.505 157.04,190.838 155.5,188.5C 155.5,188.167 155.5,187.833 155.5,187.5C 156.147,186.726 156.48,185.726 156.5,184.5C 154.841,174.56 153.841,164.56 153.5,154.5C 152.528,141.494 152.528,128.494 153.5,115.5C 150.283,116.972 146.949,118.138 143.5,119C 142.915,120.302 142.249,121.469 141.5,122.5C 141.649,121.448 141.483,120.448 141,119.5C 140.506,121.134 140.34,122.801 140.5,124.5C 135.794,122.8 130.794,121.967 125.5,122C 127.167,121.667 128.833,121.333 130.5,121C 127.207,120.174 123.874,119.674 120.5,119.5C 119.655,117.088 119.655,114.922 120.5,113C 123.121,111.405 125.787,109.905 128.5,108.5C 129.086,108.709 129.586,109.043 130,109.5C 131.204,108.529 131.704,107.529 131.5,106.5C 132.086,106.709 132.586,107.043 133,107.5C 136.746,104.489 139.412,101.155 141,97.5C 141.333,98.1667 141.667,98.8333 142,99.5C 145.713,95.2923 149.213,90.959 152.5,86.5C 153.167,86.5 153.5,86.1667 153.5,85.5C 154.338,85.1583 154.672,84.4916 154.5,83.5C 154.167,83.5 153.833,83.5 153.5,83.5C 153.167,82.1667 152.833,82.1667 152.5,83.5C 151.508,83.3284 150.842,83.6618 150.5,84.5C 148.302,84.8751 146.302,85.5418 144.5,86.5C 139.167,86.8333 139.167,87.1667 144.5,87.5C 142.034,88.6341 139.367,88.8007 136.5,88C 137.167,87.6667 137.833,87.3333 138.5,87C 137.016,86.3378 135.683,85.5045 134.5,84.5C 134.859,82.629 135.859,81.129 137.5,80C 136.396,78.8687 136.729,78.0354 138.5,77.5C 139.086,77.7093 139.586,78.0426 140,78.5C 148.15,71.3787 156.65,63.2121 165.5,54C 164.167,53.3333 164.167,52.6667 165.5,52C 166.449,51.3828 167.282,51.5494 168,52.5C 169.119,51.4479 169.619,50.2812 169.5,49C 171.279,49.9791 172.945,49.6458 174.5,48C 174.057,46.4815 174.724,45.3148 176.5,44.5C 177.167,44.8333 177.833,45.1667 178.5,45.5C 184.898,42.3676 191.564,40.0342 198.5,38.5C 193.52,38.2507 189.853,37.084 187.5,35C 193.152,31.5964 199.152,29.4297 205.5,28.5C 213.677,28.9774 221.677,30.1441 229.5,32C 230.167,31.3333 230.833,30.6667 231.5,30C 229.985,27.3772 227.985,26.3772 225.5,27C 225.167,26 224.833,25 224.5,24C 223.216,23.3162 222.049,23.4829 221,24.5C 220.51,23.2068 220.343,21.8734 220.5,20.5C 226.167,20.5 231.833,20.5 237.5,20.5 Z M 282.5,58.5 C 283.167,58.8333 283.833,59.1667 284.5,59.5C 283.377,60.7574 282.711,60.4241 282.5,58.5 Z M 326.5,77.5 C 323.863,75.8462 324.197,75.3462 327.5,76C 326.944,76.3826 326.611,76.8826 326.5,77.5 Z M 154.5,83.5 C 154.511,81.3141 155.511,80.4808 157.5,81C 156.627,82.045 155.627,82.8783 154.5,83.5 Z"/></g>
<g><path style="opacity:0.004" fill="#7c6450" d="M 207.5,27.5 C 208.251,26.4265 209.251,26.2599 210.5,27C 209.552,27.4828 208.552,27.6495 207.5,27.5 Z"/></g>
<g><path style="opacity:0.012" fill="#604c44" d="M 205.5,28.5 C 203.473,28.6621 201.473,28.4955 199.5,28C 201.712,27.2109 203.712,27.3775 205.5,28.5 Z"/></g>
<g><path style="opacity:0.012" fill="#54443f" d="M 213.5,28.5 C 214.946,27.3871 216.613,27.2204 218.5,28C 216.866,28.4935 215.199,28.6602 213.5,28.5 Z"/></g>
<g><path style="opacity:0.012" fill="#5e4b44" d="M 195.5,29.5 C 196.251,28.4265 197.251,28.2599 198.5,29C 197.552,29.4828 196.552,29.6495 195.5,29.5 Z"/></g>
<g><path style="opacity:0.004" fill="#7c6450" d="M 188.5,31.5 C 189.833,32.1667 189.833,32.1667 188.5,31.5 Z"/></g>
<g><path style="opacity:0.004" fill="#735c4d" d="M 264.5,35.5 C 266.664,34.8817 268.33,35.8817 269.5,38.5C 269.376,39.1067 269.043,39.44 268.5,39.5C 267.833,39.5 267.5,39.1667 267.5,38.5C 266.833,38.5 266.5,38.1667 266.5,37.5C 265.833,37.5 265.5,37.1667 265.5,36.5C 264.833,36.5 264.5,36.1667 264.5,35.5 Z"/></g>
<g><path style="opacity:1" fill="#3e210f" d="M 211.5,42.5 C 226.837,41.3377 237.504,47.8377 243.5,62C 236.635,57.5596 229.302,53.5596 221.5,50C 215.608,48.355 209.608,47.355 203.5,47C 206.099,45.205 208.766,43.705 211.5,42.5 Z"/></g>
<g><path style="opacity:1" fill="#3e210f" d="M 241.5,43.5 C 247.372,42.995 252.539,44.995 257,49.5C 262.278,57.4658 263.278,65.7991 260,74.5C 257.782,62.5648 252.282,52.3981 243.5,44C 242.906,43.5357 242.239,43.369 241.5,43.5 Z"/></g>
<g><path style="opacity:0.004" fill="#7c6450" d="M 274.5,44.5 C 275.833,45.1667 275.833,45.1667 274.5,44.5 Z"/></g>
<g><path style="opacity:0.012" fill="#604c44" d="M 298.5,54.5 C 300.288,53.3775 302.288,53.2109 304.5,54C 302.527,54.4955 300.527,54.6621 298.5,54.5 Z"/></g>
<g><path style="opacity:0.004" fill="#7c6450" d="M 315.5,58.5 C 316.833,59.1667 316.833,59.1667 315.5,58.5 Z"/></g>
<g><path style="opacity:1" fill="#3d200e" d="M 206.5,66.5 C 221.752,65.5281 235.085,70.0281 246.5,80C 240.779,80.1037 235.112,79.437 229.5,78C 212.19,75.8017 196.023,78.9683 181,87.5C 183.212,79.2746 188.379,73.4412 196.5,70C 199.98,68.8974 203.313,67.7308 206.5,66.5 Z"/></g>
<g><path style="opacity:1" fill="#3e210f" d="M 292.5,65.5 C 295.187,65.3359 297.854,65.5026 300.5,66C 294.416,68.1269 289.249,71.6269 285,76.5C 285.66,71.6577 288.16,67.9911 292.5,65.5 Z"/></g>
<g><path style="opacity:1" fill="#3e200e" d="M 304.5,70.5 C 310.492,69.9857 315.158,72.1524 318.5,77C 314.262,75.3812 309.762,74.5479 305,74.5C 294.264,76.0172 294.098,74.6839 304.5,70.5 Z"/></g>
<g><path style="opacity:0.012" fill="#54443f" d="M 329.5,73.5 C 330.833,74.1667 330.833,74.1667 329.5,73.5 Z"/></g>
<g><path style="opacity:0.012" fill="#54443f" d="M 331.5,81.5 C 330.833,80.1667 330.833,80.1667 331.5,81.5 Z"/></g>
<g><path style="opacity:0.004" fill="#7c6450" d="M 331.5,81.5 C 332.833,82.1667 332.833,82.1667 331.5,81.5 Z"/></g>
<g><path style="opacity:1" fill="#deb888" d="M 302.5,122.5 C 300.318,116.479 297.818,110.479 295,104.5C 290.222,97.8551 284.055,96.0217 276.5,99C 261.587,109.61 244.921,113.777 226.5,111.5C 218.491,111.362 210.491,111.029 202.5,110.5C 189.785,111.212 180.451,117.212 174.5,128.5C 172.782,129.224 170.948,129.891 169,130.5C 168.199,133.367 168.366,136.034 169.5,138.5C 168.405,143.784 166.739,148.784 164.5,153.5C 165.726,136.969 168.226,120.636 172,104.5C 175.104,101.067 178.937,98.9004 183.5,98C 200.287,96.9534 216.954,97.9534 233.5,101C 251.604,103.192 266.271,97.1923 277.5,83C 280.998,81.0333 284.332,81.3666 287.5,84C 297.098,94.9486 302.098,107.782 302.5,122.5 Z"/></g>
<g><path style="opacity:1" fill="#3e210f" d="M 293.5,81.5 C 305.089,80.8719 313.589,85.5386 319,95.5C 319.837,97.8212 320.17,100.155 320,102.5C 312.032,92.7597 301.866,86.4263 289.5,83.5C 290.949,82.8281 292.282,82.1614 293.5,81.5 Z"/></g>
<g><path style="opacity:0.012" fill="#54443f" d="M 152.5,83.5 C 152.833,83.5 153.167,83.5 153.5,83.5C 153.5,84.1667 153.5,84.8333 153.5,85.5C 152.833,85.5 152.5,85.8333 152.5,86.5C 151.5,86.1667 150.833,85.5 150.5,84.5C 151.492,84.6716 152.158,84.3382 152.5,83.5 Z"/></g>
<g><path style="opacity:0.004" fill="#7c6450" d="M 134.5,84.5 C 133.833,85.1667 133.833,85.1667 134.5,84.5 Z"/></g>
<g><path style="opacity:0.004" fill="#6f594b" d="M 333.5,85.5 C 333.167,85.5 332.833,85.5 332.5,85.5C 332.833,82.8333 333.167,82.8333 333.5,85.5 Z"/></g>
<g><path style="opacity:0.012" fill="#5e4b44" d="M 144.5,87.5 C 144.5,87.1667 144.5,86.8333 144.5,86.5C 148.5,86.8333 148.5,87.1667 144.5,87.5 Z"/></g>
<g><path style="opacity:0.012" fill="#5b4942" d="M 333.5,85.5 C 334.613,86.9464 334.78,88.6131 334,90.5C 333.506,88.8659 333.34,87.1992 333.5,85.5 Z"/></g>
<g><path style="opacity:0.999" fill="#ecd0ab" d="M 302.5,122.5 C 303.886,154.921 307.886,186.921 314.5,218.5C 314.5,219.833 314.5,221.167 314.5,222.5C 307.944,250.22 290.611,267.054 262.5,273C 236.948,277.89 211.281,278.723 185.5,275.5C 184.893,275.624 184.56,275.957 184.5,276.5C 184.167,276.5 183.833,276.5 183.5,276.5C 183.5,275.833 183.167,275.5 182.5,275.5C 182.167,275.5 181.833,275.5 181.5,275.5C 181.5,274.833 181.167,274.5 180.5,274.5C 180.167,274.5 179.833,274.5 179.5,274.5C 179.5,273.833 179.167,273.5 178.5,273.5C 177.833,273.5 177.5,273.833 177.5,274.5C 176.804,272.868 175.138,271.535 172.5,270.5C 172.5,269.833 172.167,269.5 171.5,269.5C 171.5,268.833 171.167,268.5 170.5,268.5C 168.605,267.027 166.939,265.36 165.5,263.5C 165.008,261.181 164.008,259.181 162.5,257.5C 162.672,256.508 162.338,255.842 161.5,255.5C 161.435,252.572 160.768,249.905 159.5,247.5C 159.5,244.5 159.5,241.5 159.5,238.5C 159.737,237.209 159.404,236.209 158.5,235.5C 158.5,231.167 158.5,226.833 158.5,222.5C 159.461,220.735 159.795,218.735 159.5,216.5C 159.5,211.833 159.5,207.167 159.5,202.5C 160.618,186.213 162.285,169.879 164.5,153.5C 166.739,148.784 168.405,143.784 169.5,138.5C 173.323,136.898 177.323,135.731 181.5,135C 190.505,134.625 199.505,134.792 208.5,135.5C 208.548,132.708 207.215,130.875 204.5,130C 194.557,128.635 184.557,128.135 174.5,128.5C 180.451,117.212 189.785,111.212 202.5,110.5C 210.491,111.029 218.491,111.362 226.5,111.5C 244.921,113.777 261.587,109.61 276.5,99C 284.055,96.0217 290.222,97.8551 295,104.5C 297.818,110.479 300.318,116.479 302.5,122.5 Z"/></g>
<g><path style="opacity:0.004" fill="#7c6450" d="M 332.5,97.5 C 333.573,98.2506 333.74,99.2506 333,100.5C 332.517,99.552 332.351,98.552 332.5,97.5 Z"/></g>
<g><path style="opacity:0.012" fill="#624e45" d="M 331.5,101.5 C 332.833,103.167 332.833,104.833 331.5,106.5C 331.5,104.833 331.5,103.167 331.5,101.5 Z"/></g>
<g><path style="opacity:0.012" fill="#645046" d="M 330.5,106.5 C 330.833,106.5 331.167,106.5 331.5,106.5C 331.768,108.099 331.434,109.432 330.5,110.5C 330.5,109.167 330.5,107.833 330.5,106.5 Z"/></g>
<g><path style="opacity:0.012" fill="#54443f" d="M 331.5,111.5 C 332.573,112.251 332.74,113.251 332,114.5C 331.517,113.552 331.351,112.552 331.5,111.5 Z"/></g>
<g><path style="opacity:0.012" fill="#54443f" d="M 117.5,115.5 C 118.573,116.251 118.74,117.251 118,118.5C 117.517,117.552 117.351,116.552 117.5,115.5 Z"/></g>
<g><path style="opacity:1" fill="#3d2112" d="M 153.5,154.5 C 147.936,155.647 144.602,158.981 143.5,164.5C 143.737,163.209 143.404,162.209 142.5,161.5C 140.749,149.245 140.083,136.912 140.5,124.5C 141.338,124.158 141.672,123.492 141.5,122.5C 142.249,121.469 142.915,120.302 143.5,119C 146.949,118.138 150.283,116.972 153.5,115.5C 152.528,128.494 152.528,141.494 153.5,154.5 Z"/></g>
<g><path style="opacity:1" fill="#6b472f" d="M 285.5,116.5 C 293.562,114.238 297.562,117.238 297.5,125.5C 281.494,125.068 266.328,128.401 252,135.5C 249.768,131.942 250.601,129.109 254.5,127C 264.441,121.965 274.775,118.465 285.5,116.5 Z"/></g>
<g><path style="opacity:0.004" fill="#7c6450" d="M 120.5,119.5 C 120.5,119.833 120.5,120.167 120.5,120.5C 119.83,120.019 119.83,119.685 120.5,119.5 Z"/></g>
<g><path style="opacity:0.012" fill="#645046" d="M 120.5,120.5 C 121.873,120.343 123.207,120.51 124.5,121C 122.934,121.765 121.601,121.598 120.5,120.5 Z"/></g>
<g><path style="opacity:0.004" fill="#7c6450" d="M 333.5,121.5 C 334.833,122.167 334.833,122.167 333.5,121.5 Z"/></g>
<g><path style="opacity:0.012" fill="#584641" d="M 138.5,125.5 C 139.657,133.656 139.823,141.99 139,150.5C 138.5,142.173 138.334,133.84 138.5,125.5 Z"/></g>
<g><path style="opacity:1" fill="#6a452d" d="M 174.5,128.5 C 184.557,128.135 194.557,128.635 204.5,130C 207.215,130.875 208.548,132.708 208.5,135.5C 199.505,134.792 190.505,134.625 181.5,135C 177.323,135.731 173.323,136.898 169.5,138.5C 168.366,136.034 168.199,133.367 169,130.5C 170.948,129.891 172.782,129.224 174.5,128.5 Z"/></g>
<g><path style="opacity:0.012" fill="#5c4a43" d="M 331.5,136.5 C 331.343,135.127 331.51,133.793 332,132.5C 332.765,134.066 332.598,135.399 331.5,136.5 Z"/></g>
<g><path style="opacity:1" fill="#b6956b" d="M 216.5,133.5 C 218.017,133.511 219.184,134.177 220,135.5C 220.333,151.5 220.667,167.5 221,183.5C 221.391,189.863 222.058,196.197 223,202.5C 225.132,205.316 227.965,206.649 231.5,206.5C 236.071,205.088 240.737,204.088 245.5,203.5C 245.762,204.978 245.429,206.311 244.5,207.5C 238.182,211.457 231.515,212.29 224.5,210C 221.272,208.437 219.105,205.937 218,202.5C 215.471,179.484 214.971,156.484 216.5,133.5 Z"/></g>
<g><path style="opacity:0.004" fill="#7c6450" d="M 330.5,136.5 C 330.833,136.5 331.167,136.5 331.5,136.5C 331.672,137.492 331.338,138.158 330.5,138.5C 330.5,137.833 330.5,137.167 330.5,136.5 Z"/></g>
<g><path style="opacity:1" fill="#bc9565" d="M 275.5,138.5 C 284.617,136.743 291.951,139.409 297.5,146.5C 289.874,143.278 281.541,141.444 272.5,141C 273.571,140.148 274.571,139.315 275.5,138.5 Z"/></g>
<g><path style="opacity:0.012" fill="#5c4943" d="M 331.5,139.5 C 332.641,142.64 332.808,145.973 332,149.5C 331.502,146.183 331.335,142.85 331.5,139.5 Z"/></g>
<g><path style="opacity:1" fill="#bc9565" d="M 184.5,140.5 C 189.627,140.564 194.294,142.064 198.5,145C 189.369,144.738 180.702,146.571 172.5,150.5C 172.167,150.167 171.833,149.833 171.5,149.5C 174.51,144.475 178.843,141.475 184.5,140.5 Z"/></g>
<g><path style="opacity:1" fill="#fbfbfb" d="M 287.5,170.5 C 293.486,160.517 290.819,154.517 279.5,152.5C 267.474,155.62 265.474,161.953 273.5,171.5C 264.147,176.036 259.48,172.869 259.5,162C 259.542,153.593 263.542,147.927 271.5,145C 280.041,143.509 288.041,144.842 295.5,149C 302.077,155.568 303.244,163.068 299,171.5C 298.439,172.022 297.772,172.355 297,172.5C 293.974,171.128 290.807,170.462 287.5,170.5 Z"/></g>
<g><path style="opacity:1" fill="#fcfcfc" d="M 197.5,174.5 C 203.075,168.743 202.742,163.243 196.5,158C 185.691,154.495 180.191,158.329 180,169.5C 180.804,172.146 182.304,174.146 184.5,175.5C 174.159,182.94 168.825,180.273 168.5,167.5C 168.853,158.305 173.52,152.471 182.5,150C 193.534,147.449 202.367,150.616 209,159.5C 211.496,166.365 210.496,172.698 206,178.5C 203.222,176.848 200.389,175.514 197.5,174.5 Z"/></g>
<g><path style="opacity:1" fill="#eacea8" d="M 312.5,182.5 C 312.338,180.473 312.505,178.473 313,176.5C 316.631,173.244 317.964,169.244 317,164.5C 315.736,162.393 313.903,161.393 311.5,161.5C 309.49,152.679 312.824,149.513 321.5,152C 325.338,154.677 327.005,158.344 326.5,163C 327.046,173.454 322.38,179.954 312.5,182.5 Z"/></g>
<g><path style="opacity:1" fill="#0a090c" d="M 287.5,170.5 C 282.786,170.353 278.119,170.686 273.5,171.5C 265.474,161.953 267.474,155.62 279.5,152.5C 290.819,154.517 293.486,160.517 287.5,170.5 Z"/></g>
<g><path style="opacity:0.004" fill="#7c6450" d="M 332.5,152.5 C 333.643,155.976 333.81,159.642 333,163.5C 332.501,159.848 332.335,156.182 332.5,152.5 Z"/></g>
<g><path style="opacity:0.004" fill="#6d574a" d="M 139.5,152.5 C 140.613,153.946 140.78,155.613 140,157.5C 139.506,155.866 139.34,154.199 139.5,152.5 Z"/></g>
<g><path style="opacity:1" fill="#dbdbde" d="M 274.5,154.5 C 278.161,154.35 279.161,155.85 277.5,159C 273.707,159.487 272.707,157.987 274.5,154.5 Z"/></g>
<g><path style="opacity:0.989" fill="#e3c7a2" d="M 153.5,154.5 C 153.841,164.56 154.841,174.56 156.5,184.5C 156.48,185.726 156.147,186.726 155.5,187.5C 154.167,187.833 154.167,188.167 155.5,188.5C 155.649,189.552 155.483,190.552 155,191.5C 154.535,190.069 153.701,188.903 152.5,188C 153.654,187.086 153.487,186.253 152,185.5C 151.282,186.451 150.449,186.617 149.5,186C 149.794,184.346 149.127,182.846 147.5,181.5C 146.737,179.632 145.737,177.965 144.5,176.5C 143.728,172.548 143.395,168.548 143.5,164.5C 144.602,158.981 147.936,155.647 153.5,154.5 Z"/></g>
<g><path style="opacity:1" fill="#0c0a0d" d="M 197.5,174.5 C 193.265,175.436 188.931,175.769 184.5,175.5C 182.304,174.146 180.804,172.146 180,169.5C 180.191,158.329 185.691,154.495 196.5,158C 202.742,163.243 203.075,168.743 197.5,174.5 Z"/></g>
<g><path style="opacity:1" fill="#eaebec" d="M 193.5,158.5 C 196.956,159.536 197.29,161.203 194.5,163.5C 192.296,162.218 191.962,160.551 193.5,158.5 Z"/></g>
<g><path style="opacity:1" fill="#ba9465" d="M 311.5,161.5 C 313.903,161.393 315.736,162.393 317,164.5C 317.964,169.244 316.631,173.244 313,176.5C 312.505,178.473 312.338,180.473 312.5,182.5C 311.509,175.687 311.175,168.687 311.5,161.5 Z"/></g>
<g><path style="opacity:0.012" fill="#634f46" d="M 142.5,161.5 C 142.666,165.514 142.499,169.514 142,173.5C 141.188,169.311 141.355,165.311 142.5,161.5 Z"/></g>
<g><path style="opacity:0.012" fill="#5f4c44" d="M 331.5,166.5 C 332.641,169.64 332.808,172.973 332,176.5C 331.502,173.183 331.335,169.85 331.5,166.5 Z"/></g>
<g><path style="opacity:0.004" fill="#6f594b" d="M 143.5,176.5 C 142.475,176.103 142.308,175.437 143,174.5C 143.464,175.094 143.631,175.761 143.5,176.5 Z"/></g>
<g><path style="opacity:0.004" fill="#7c6450" d="M 143.5,176.5 C 143.833,176.5 144.167,176.5 144.5,176.5C 144.167,179.167 143.833,179.167 143.5,176.5 Z"/></g>
<g><path style="opacity:0.012" fill="#5b4942" d="M 330.5,177.5 C 331.613,178.946 331.78,180.613 331,182.5C 330.506,180.866 330.34,179.199 330.5,177.5 Z"/></g>
<g><path style="opacity:0.004" fill="#7c6450" d="M 144.5,179.5 C 145.833,180.167 145.833,180.167 144.5,179.5 Z"/></g>
<g><path style="opacity:0.004" fill="#7c6450" d="M 147.5,181.5 C 146.833,182.167 146.833,182.167 147.5,181.5 Z"/></g>
<g><path style="opacity:0.012" fill="#624e45" d="M 329.5,183.5 C 330.833,185.167 330.833,186.833 329.5,188.5C 329.5,186.833 329.5,185.167 329.5,183.5 Z"/></g>
<g><path style="opacity:0.012" fill="#5c4a43" d="M 328.5,188.5 C 328.833,188.5 329.167,188.5 329.5,188.5C 329.768,190.099 329.434,191.432 328.5,192.5C 328.5,191.167 328.5,189.833 328.5,188.5 Z"/></g>
<g><path style="opacity:0.012" fill="#54443f" d="M 155.5,192.5 C 156.573,193.251 156.74,194.251 156,195.5C 155.517,194.552 155.351,193.552 155.5,192.5 Z"/></g>
<g><path style="opacity:0.012" fill="#5e4b44" d="M 327.5,192.5 C 327.833,192.5 328.167,192.5 328.5,192.5C 328.167,196.5 327.833,196.5 327.5,192.5 Z"/></g>
<g><path style="opacity:0.012" fill="#54443f" d="M 157.5,196.5 C 157.649,197.552 157.483,198.552 157,199.5C 156.26,198.251 156.427,197.251 157.5,196.5 Z"/></g>
<g><path style="opacity:0.012" fill="#5e4b44" d="M 326.5,196.5 C 327.833,197.5 327.833,198.5 326.5,199.5C 326.5,198.5 326.5,197.5 326.5,196.5 Z"/></g>
<g><path style="opacity:0.012" fill="#54443f" d="M 325.5,199.5 C 325.833,199.5 326.167,199.5 326.5,199.5C 326.167,202.167 325.833,202.167 325.5,199.5 Z"/></g>
<g><path style="opacity:0.004" fill="#6f594b" d="M 324.5,202.5 C 325.833,203.167 325.833,203.833 324.5,204.5C 324.5,203.833 324.5,203.167 324.5,202.5 Z"/></g>
<g><path style="opacity:0.012" fill="#54443f" d="M 323.5,204.5 C 323.833,204.5 324.167,204.5 324.5,204.5C 324.167,207.167 323.833,207.167 323.5,204.5 Z"/></g>
<g><path style="opacity:0.012" fill="#634f46" d="M 158.5,200.5 C 158.666,205.511 158.499,210.511 158,215.5C 157.184,210.316 157.35,205.316 158.5,200.5 Z"/></g>
<g><path style="opacity:1" fill="#b5946a" d="M 269.5,207.5 C 277.382,206.546 280.549,209.879 279,217.5C 278.385,215.884 277.385,214.551 276,213.5C 258.996,225.238 240.163,229.738 219.5,227C 214.508,226.004 209.841,224.171 205.5,221.5C 204.833,222.833 204.167,224.167 203.5,225.5C 201.043,217.041 204.043,213.707 212.5,215.5C 211.092,216.243 209.759,217.077 208.5,218C 212.356,220.842 216.69,222.509 221.5,223C 237.62,224.793 252.953,222.126 267.5,215C 269.349,213.907 271.016,212.574 272.5,211C 271.167,210.333 269.833,209.667 268.5,209C 269.056,208.617 269.389,208.117 269.5,207.5 Z"/></g>
<g><path style="opacity:0.012" fill="#54443f" d="M 322.5,207.5 C 323.833,208.167 323.833,208.167 322.5,207.5 Z"/></g>
<g><path style="opacity:0.012" fill="#54443f" d="M 321.5,209.5 C 322.833,210.167 322.833,210.167 321.5,209.5 Z"/></g>
<g><path style="opacity:0.012" fill="#624e45" d="M 320.5,210.5 C 320.833,210.5 321.167,210.5 321.5,210.5C 321.672,211.492 321.338,212.158 320.5,212.5C 320.5,211.833 320.5,211.167 320.5,210.5 Z"/></g>
<g><path style="opacity:0.004" fill="#6f594b" d="M 319.5,212.5 C 319.833,212.5 320.167,212.5 320.5,212.5C 320.672,213.492 320.338,214.158 319.5,214.5C 319.5,213.833 319.5,213.167 319.5,212.5 Z"/></g>
<g><path style="opacity:0.012" fill="#54443f" d="M 318.5,214.5 C 318.833,214.5 319.167,214.5 319.5,214.5C 319.315,215.17 318.981,215.17 318.5,214.5 Z"/></g>
<g><path style="opacity:0.012" fill="#54443f" d="M 317.5,215.5 C 317.833,215.5 318.167,215.5 318.5,215.5C 318.315,216.17 317.981,216.17 317.5,215.5 Z"/></g>
<g><path style="opacity:0.012" fill="#604c44" d="M 159.5,216.5 C 159.795,218.735 159.461,220.735 158.5,222.5C 158.67,221.178 158.337,220.011 157.5,219C 158.066,218.005 158.733,217.172 159.5,216.5 Z"/></g>
<g><path style="opacity:0.012" fill="#54443f" d="M 316.5,217.5 C 317.833,218.167 317.833,218.167 316.5,217.5 Z"/></g>
<g><path style="opacity:0.012" fill="#5e4b44" d="M 315.5,218.5 C 315.833,218.5 316.167,218.5 316.5,218.5C 316.167,222.5 315.833,222.5 315.5,218.5 Z"/></g>
<g><path style="opacity:0.004" fill="#7c6450" d="M 157.5,236.5 C 156.349,231.35 156.183,226.016 157,220.5C 157.499,225.823 157.666,231.156 157.5,236.5 Z"/></g>
<g><path style="opacity:1" fill="#dcb788" d="M 314.5,222.5 C 316.012,233.858 315.679,245.191 313.5,256.5C 312.596,257.209 312.263,258.209 312.5,259.5C 311.833,259.5 311.5,259.833 311.5,260.5C 310.662,260.842 310.328,261.508 310.5,262.5C 309.833,262.5 309.5,262.833 309.5,263.5C 308.167,263.833 308.167,264.167 309.5,264.5C 309.5,266.5 308.5,267.5 306.5,267.5C 306.167,266.167 305.833,266.167 305.5,267.5C 304.833,267.5 304.5,267.833 304.5,268.5C 303.167,268.833 303.167,269.167 304.5,269.5C 304.027,270.906 303.027,271.573 301.5,271.5C 300.833,270.167 300.167,270.167 299.5,271.5C 298.508,271.328 297.842,271.662 297.5,272.5C 294.833,272.833 294.833,273.167 297.5,273.5C 295.11,275.02 292.443,276.02 289.5,276.5C 288.833,275.167 288.167,275.167 287.5,276.5C 285.447,276.402 283.78,277.069 282.5,278.5C 282.167,278.5 281.833,278.5 281.5,278.5C 280.209,278.263 279.209,278.596 278.5,279.5C 277.833,279.5 277.5,279.833 277.5,280.5C 274.482,280.704 271.482,281.037 268.5,281.5C 253.227,284.8 237.894,286.467 222.5,286.5C 218.343,284.938 214.01,284.271 209.5,284.5C 208.883,284.389 208.383,284.056 208,283.5C 207.583,284.756 206.75,285.423 205.5,285.5C 205.217,284.711 204.717,284.044 204,283.5C 202.384,284.801 200.884,284.801 199.5,283.5C 201.224,283.539 201.557,283.206 200.5,282.5C 199.432,281.566 198.099,281.232 196.5,281.5C 194.299,280.434 191.965,279.767 189.5,279.5C 188.833,278.167 188.167,278.167 187.5,279.5C 186.209,279.737 185.209,279.404 184.5,278.5C 185.833,278.167 185.833,277.833 184.5,277.5C 184.5,277.167 184.5,276.833 184.5,276.5C 184.56,275.957 184.893,275.624 185.5,275.5C 211.281,278.723 236.948,277.89 262.5,273C 290.611,267.054 307.944,250.22 314.5,222.5 Z"/></g>
<g><path style="opacity:0.012" fill="#5d4a43" d="M 316.5,223.5 C 317.645,227.311 317.812,231.311 317,235.5C 316.501,231.514 316.334,227.514 316.5,223.5 Z"/></g>
<g><path style="opacity:1" fill="#b6956b" d="M 244.5,232.5 C 246.688,233.536 246.688,235.036 244.5,237C 238.329,239.792 232.995,238.792 228.5,234C 230.96,233.937 233.46,234.104 236,234.5C 239.116,234.511 241.949,233.845 244.5,232.5 Z"/></g>
<g><path style="opacity:0.012" fill="#5a4841" d="M 158.5,235.5 C 159.404,236.209 159.737,237.209 159.5,238.5C 158.5,238.167 157.833,237.5 157.5,236.5C 158.167,236.5 158.5,236.167 158.5,235.5 Z"/></g>
<g><path style="opacity:0.012" fill="#665147" d="M 157.5,239.5 C 158.629,241.628 158.796,243.961 158,246.5C 157.503,244.19 157.337,241.857 157.5,239.5 Z"/></g>
<g><path style="opacity:0.012" fill="#604c44" d="M 316.5,239.5 C 317.638,242.304 317.805,245.304 317,248.5C 316.502,245.518 316.335,242.518 316.5,239.5 Z"/></g>
<g><path style="opacity:0.012" fill="#645046" d="M 159.5,247.5 C 159.657,248.873 159.49,250.207 159,251.5C 158.235,249.934 158.402,248.601 159.5,247.5 Z"/></g>
<g><path style="opacity:0.012" fill="#685348" d="M 315.5,250.5 C 316.573,251.251 316.74,252.251 316,253.5C 315.517,252.552 315.351,251.552 315.5,250.5 Z"/></g>
<g><path style="opacity:0.004" fill="#6f594b" d="M 159.5,252.5 C 160.525,252.897 160.692,253.563 160,254.5C 159.536,253.906 159.369,253.239 159.5,252.5 Z"/></g>
<g><path style="opacity:0.004" fill="#6f594b" d="M 314.5,256.5 C 314.369,255.761 314.536,255.094 315,254.5C 315.692,255.437 315.525,256.103 314.5,256.5 Z"/></g>
<g><path style="opacity:0.004" fill="#6f594b" d="M 161.5,255.5 C 161.5,256.167 161.5,256.833 161.5,257.5C 160.167,256.833 160.167,256.167 161.5,255.5 Z"/></g>
<g><path style="opacity:0.004" fill="#7c6450" d="M 161.5,257.5 C 161.833,257.5 162.167,257.5 162.5,257.5C 162.167,260.167 161.833,260.167 161.5,257.5 Z"/></g>
<g><path style="opacity:0.012" fill="#624e45" d="M 313.5,256.5 C 313.833,256.5 314.167,256.5 314.5,256.5C 314.167,259.167 313.833,259.167 313.5,256.5 Z"/></g>
<g><path style="opacity:0.012" fill="#54443f" d="M 312.5,259.5 C 313.833,260.167 313.833,260.167 312.5,259.5 Z"/></g>
<g><path style="opacity:0.012" fill="#54443f" d="M 162.5,260.5 C 163.833,261.167 163.833,261.167 162.5,260.5 Z"/></g>
<g><path style="opacity:0.004" fill="#7c6450" d="M 311.5,260.5 C 311.833,260.5 312.167,260.5 312.5,260.5C 312.672,261.492 312.338,262.158 311.5,262.5C 311.5,261.833 311.5,261.167 311.5,260.5 Z"/></g>
<g><path style="opacity:1" fill="#b5946a" d="M 230.5,261.5 C 237.391,260.901 244.058,261.735 250.5,264C 251.833,265.333 253.167,266.667 254.5,268C 245.259,266.487 235.926,266.321 226.5,267.5C 225.5,267.167 224.5,266.833 223.5,266.5C 223.667,266.167 223.833,265.833 224,265.5C 226.314,264.267 228.481,262.933 230.5,261.5 Z"/></g>
<g><path style="opacity:0.012" fill="#54443f" d="M 310.5,262.5 C 310.833,262.5 311.167,262.5 311.5,262.5C 311.315,263.17 310.981,263.17 310.5,262.5 Z"/></g>
<g><path style="opacity:0.012" fill="#54443f" d="M 165.5,263.5 C 164.833,264.167 164.833,264.167 165.5,263.5 Z"/></g>
<g><path style="opacity:0.012" fill="#54443f" d="M 309.5,263.5 C 309.833,263.5 310.167,263.5 310.5,263.5C 310.315,264.17 309.981,264.17 309.5,263.5 Z"/></g>
<g><path style="opacity:0.004" fill="#7c6450" d="M 165.5,265.5 C 166.833,266.167 166.833,266.167 165.5,265.5 Z"/></g>
<g><path style="opacity:0.012" fill="#54443f" d="M 305.5,267.5 C 305.833,267.5 306.167,267.5 306.5,267.5C 306.315,268.17 305.981,268.17 305.5,267.5 Z"/></g>
<g><path style="opacity:0.012" fill="#54443f" d="M 304.5,268.5 C 304.833,268.5 305.167,268.5 305.5,268.5C 305.315,269.17 304.981,269.17 304.5,268.5 Z"/></g>
<g><path style="opacity:0.004" fill="#6f594b" d="M 170.5,268.5 C 171.167,268.5 171.5,268.833 171.5,269.5C 172.167,269.5 172.5,269.833 172.5,270.5C 172.103,271.525 171.437,271.692 170.5,271C 169.402,270.23 169.402,269.397 170.5,268.5 Z"/></g>
<g><path style="opacity:1" fill="#b4936a" d="M 235.5,269.5 C 238.998,269.478 240.331,270.978 239.5,274C 237.866,274.494 236.199,274.66 234.5,274.5C 234.366,272.708 234.699,271.042 235.5,269.5 Z"/></g>
<g><path style="opacity:0.012" fill="#624e45" d="M 299.5,272.5 C 299.5,272.167 299.5,271.833 299.5,271.5C 300.167,271.5 300.833,271.5 301.5,271.5C 301.158,272.338 300.492,272.672 299.5,272.5 Z"/></g>
<g><path style="opacity:0.004" fill="#6f594b" d="M 297.5,273.5 C 297.5,273.167 297.5,272.833 297.5,272.5C 298.167,272.5 298.833,272.5 299.5,272.5C 299.158,273.338 298.492,273.672 297.5,273.5 Z"/></g>
<g><path style="opacity:0.004" fill="#715a4b" d="M 178.5,273.5 C 179.167,273.5 179.5,273.833 179.5,274.5C 179.833,275.833 180.167,275.833 180.5,274.5C 181.167,274.5 181.5,274.833 181.5,275.5C 181.833,276.833 182.167,276.833 182.5,275.5C 183.167,275.5 183.5,275.833 183.5,276.5C 183.5,277.167 183.833,277.5 184.5,277.5C 184.5,277.833 184.5,278.167 184.5,278.5C 181.669,277.921 179.336,276.588 177.5,274.5C 178.167,274.5 178.5,274.167 178.5,273.5 Z"/></g>
<g><path style="opacity:0.012" fill="#624e45" d="M 287.5,277.5 C 287.5,277.167 287.5,276.833 287.5,276.5C 288.167,276.5 288.833,276.5 289.5,276.5C 289.158,277.338 288.492,277.672 287.5,277.5 Z"/></g>
<g><path style="opacity:0.004" fill="#6f594b" d="M 287.5,277.5 C 287.103,278.525 286.437,278.692 285.5,278C 286.094,277.536 286.761,277.369 287.5,277.5 Z"/></g>
<g><path style="opacity:0.004" fill="#685348" d="M 282.5,279.5 C 282.5,279.167 282.5,278.833 282.5,278.5C 284.424,278.711 284.757,279.377 283.5,280.5C 283.5,279.833 283.167,279.5 282.5,279.5 Z"/></g>
<g><path style="opacity:0.012" fill="#624e45" d="M 187.5,279.5 C 188.167,279.5 188.833,279.5 189.5,279.5C 188.833,280.833 188.167,280.833 187.5,279.5 Z"/></g>
<g><path style="opacity:0.004" fill="#70594b" d="M 196.5,281.5 C 198.099,281.232 199.432,281.566 200.5,282.5C 199.833,282.5 199.5,282.833 199.5,283.5C 198.127,283.657 196.793,283.49 195.5,283C 196.056,282.617 196.389,282.117 196.5,281.5 Z"/></g>
<g><path style="opacity:1" fill="#e4e5e6" d="M 277.5,280.5 C 276.23,291.104 274.23,301.437 271.5,311.5C 269.992,313.439 268.492,316.105 267,319.5C 266.282,320.451 265.449,320.617 264.5,320C 262.75,313.169 260.917,306.336 259,299.5C 258.722,300.416 258.222,301.082 257.5,301.5C 257.586,300.504 257.252,299.671 256.5,299C 254.942,298.79 253.609,298.29 252.5,297.5C 252.709,296.078 253.209,294.745 254,293.5C 258.172,288.476 263.005,284.476 268.5,281.5C 271.482,281.037 274.482,280.704 277.5,280.5 Z"/></g>
<g><path style="opacity:1" fill="#30263f" d="M 281.5,278.5 C 281.5,279.167 281.833,279.5 282.5,279.5C 283.167,279.5 283.5,279.833 283.5,280.5C 284.301,282.508 285.634,283.008 287.5,282C 287.133,283.757 287.966,285.257 290,286.5C 290.718,285.549 291.551,285.383 292.5,286C 292.133,287.757 292.966,289.257 295,290.5C 295.718,289.549 296.551,289.383 297.5,290C 297.133,291.757 297.966,293.257 300,294.5C 300.414,294.043 300.914,293.709 301.5,293.5C 303.22,294.934 305.22,295.767 307.5,296C 305.657,296.159 304.991,296.659 305.5,297.5C 307.388,300.899 309.888,303.899 313,306.5C 313.837,308.351 314.671,310.184 315.5,312C 314.123,327.928 312.457,344.428 310.5,361.5C 307.305,392.119 304.638,422.785 302.5,453.5C 301.256,464.076 300.589,474.743 300.5,485.5C 299.566,486.568 299.232,487.901 299.5,489.5C 285.833,489.5 272.167,489.5 258.5,489.5C 257.766,488.292 257.433,486.959 257.5,485.5C 256.167,485.5 254.833,485.5 253.5,485.5C 253.666,481.486 253.499,477.486 253,473.5C 249.535,462.105 245.868,450.771 242,439.5C 237.411,450.932 233.411,462.598 230,474.5C 229.667,477.833 229.333,481.167 229,484.5C 227.989,485.337 226.822,485.67 225.5,485.5C 225.567,486.959 225.234,488.292 224.5,489.5C 210.833,489.5 197.167,489.5 183.5,489.5C 184.084,481.498 184.75,473.498 185.5,465.5C 185.327,463.962 184.994,462.462 184.5,461C 188.771,442.314 192.271,423.48 195,404.5C 195.394,391.852 195.56,379.686 195.5,368C 194.274,352.696 193.607,337.863 193.5,323.5C 203.858,345.213 215.024,366.547 227,387.5C 230.309,393.309 234.809,397.976 240.5,401.5C 245.365,399.145 249.532,395.811 253,391.5C 268.802,367.568 282.802,342.568 295,316.5C 296.427,311.417 294.593,308.083 289.5,306.5C 291.386,305.594 293.22,304.594 295,303.5C 295.667,302.5 295.667,301.5 295,300.5C 289.009,293.833 283.509,286.833 278.5,279.5C 279.209,278.596 280.209,278.263 281.5,278.5 Z"/></g>
<g><path style="opacity:1" fill="#b49369" d="M 268.5,281.5 C 263.005,284.476 258.172,288.476 254,293.5C 253.209,294.745 252.709,296.078 252.5,297.5C 248.272,298.351 244.272,299.018 240.5,299.5C 237.223,298.746 233.89,298.246 230.5,298C 229.944,297.617 229.611,297.117 229.5,296.5C 229.141,291.782 226.808,288.449 222.5,286.5C 237.894,286.467 253.227,284.8 268.5,281.5 Z"/></g>
<g><path style="opacity:1" fill="#615e6d" d="M 278.5,279.5 C 283.509,286.833 289.009,293.833 295,300.5C 295.667,301.5 295.667,302.5 295,303.5C 293.22,304.594 291.386,305.594 289.5,306.5C 294.593,308.083 296.427,311.417 295,316.5C 282.802,342.568 268.802,367.568 253,391.5C 249.532,395.811 245.365,399.145 240.5,401.5C 234.809,397.976 230.309,393.309 227,387.5C 215.024,366.547 203.858,345.213 193.5,323.5C 193.5,319.167 193.5,314.833 193.5,310.5C 198.137,310.392 198.47,309.392 194.5,307.5C 193.14,308.18 191.807,308.847 190.5,309.5C 190.389,308.883 190.056,308.383 189.5,308C 190.641,306.383 191.474,304.55 192,302.5C 197.094,297.246 201.594,291.58 205.5,285.5C 206.75,285.423 207.583,284.756 208,283.5C 208.383,284.056 208.883,284.389 209.5,284.5C 211.106,299.482 213.773,314.149 217.5,328.5C 220.247,341.148 224.08,353.481 229,365.5C 229.232,364.263 229.732,363.263 230.5,362.5C 230.714,364.144 230.38,365.644 229.5,367C 233.809,377.599 238.309,388.099 243,398.5C 247.667,387.995 251.833,377.328 255.5,366.5C 263.395,349.007 268.728,330.674 271.5,311.5C 274.23,301.437 276.23,291.104 277.5,280.5C 277.5,279.833 277.833,279.5 278.5,279.5 Z"/></g>
<g><path style="opacity:1" fill="#e5e5e6" d="M 209.5,284.5 C 214.01,284.271 218.343,284.938 222.5,286.5C 226.808,288.449 229.141,291.782 229.5,296.5C 226.5,296.167 225.167,297.5 225.5,300.5C 224.224,302.562 223.39,304.896 223,307.5C 222.153,313.814 221.487,320.147 221,326.5C 219.582,329.001 218.582,328.668 218,325.5C 217.517,326.448 217.351,327.448 217.5,328.5C 213.773,314.149 211.106,299.482 209.5,284.5 Z"/></g>
<g><path style="opacity:0.012" fill="#54443f" d="M 308.5,297.5 C 308.897,296.475 309.563,296.308 310.5,297C 309.906,297.464 309.239,297.631 308.5,297.5 Z"/></g>
<g><path style="opacity:1" fill="#37475d" d="M 229.5,296.5 C 229.611,297.117 229.944,297.617 230.5,298C 233.89,298.246 237.223,298.746 240.5,299.5C 244.272,299.018 248.272,298.351 252.5,297.5C 253.609,298.29 254.942,298.79 256.5,299C 257.252,299.671 257.586,300.504 257.5,301.5C 250.43,305.284 245.43,310.951 242.5,318.5C 246.836,334.519 251.169,350.519 255.5,366.5C 251.833,377.328 247.667,387.995 243,398.5C 238.309,388.099 233.809,377.599 229.5,367C 230.38,365.644 230.714,364.144 230.5,362.5C 232.906,347.468 235.573,332.468 238.5,317.5C 236.316,310.107 231.983,304.44 225.5,300.5C 225.167,297.5 226.5,296.167 229.5,296.5 Z"/></g>
<g><path style="opacity:1" fill="#26202f" d="M 305.5,297.5 C 309.172,298.848 312.839,299.348 316.5,299C 314.205,299.984 314.539,300.817 317.5,301.5C 318.768,300.572 320.101,300.405 321.5,301C 320.833,301.333 320.167,301.667 319.5,302C 320.745,302.791 322.078,303.291 323.5,303.5C 323.5,304.167 323.833,304.5 324.5,304.5C 324.5,305.167 324.833,305.5 325.5,305.5C 325.833,305.5 326.167,305.5 326.5,305.5C 326.833,305.5 327.167,305.5 327.5,305.5C 327.5,306.167 327.833,306.5 328.5,306.5C 328.5,307.167 328.833,307.5 329.5,307.5C 330.167,307.5 330.5,307.167 330.5,306.5C 333.94,308.055 337.273,309.888 340.5,312C 340.133,313.757 340.966,315.257 343,316.5C 347.99,320.442 353.323,325.442 359,331.5C 362.03,336.015 365.197,340.349 368.5,344.5C 368.75,346.674 369.75,348.341 371.5,349.5C 372.659,353.151 374.326,356.485 376.5,359.5C 377.992,363.818 379.992,367.818 382.5,371.5C 382.402,373.553 383.069,375.22 384.5,376.5C 385.261,380.784 386.595,384.784 388.5,388.5C 388.565,391.428 389.232,394.095 390.5,396.5C 390.205,398.735 390.539,400.735 391.5,402.5C 392.703,411.174 392.703,419.841 391.5,428.5C 390.549,429.919 390.216,431.585 390.5,433.5C 389.566,434.568 389.232,435.901 389.5,437.5C 388.069,438.78 387.402,440.447 387.5,442.5C 386.069,443.78 385.402,445.447 385.5,447.5C 384.094,447.973 383.427,448.973 383.5,450.5C 382.662,450.842 382.328,451.508 382.5,452.5C 381.094,452.973 380.427,453.973 380.5,455.5C 379.833,455.5 379.5,455.833 379.5,456.5C 378.662,456.842 378.328,457.508 378.5,458.5C 377.833,458.5 377.5,458.833 377.5,459.5C 376.833,459.5 376.5,459.833 376.5,460.5C 375.833,460.5 375.5,460.833 375.5,461.5C 374.833,461.5 374.5,461.833 374.5,462.5C 373.833,462.5 373.5,462.833 373.5,463.5C 372.167,464.167 371.167,465.167 370.5,466.5C 369.833,466.5 369.5,466.833 369.5,467.5C 368.833,467.5 368.5,467.833 368.5,468.5C 367.833,468.5 367.5,468.833 367.5,469.5C 366.833,469.5 366.5,469.833 366.5,470.5C 365.833,470.5 365.5,470.833 365.5,471.5C 364.167,471.833 364.167,472.167 365.5,472.5C 365.158,473.338 364.492,473.672 363.5,473.5C 363.167,472.167 362.833,472.167 362.5,473.5C 361.167,473.833 361.167,474.167 362.5,474.5C 360.371,476.95 357.704,478.617 354.5,479.5C 354.5,478.833 354.167,478.5 353.5,478.5C 352.833,478.5 352.5,478.833 352.5,479.5C 352.167,479.5 351.833,479.5 351.5,479.5C 350.833,479.5 350.5,479.833 350.5,480.5C 349.833,480.5 349.5,480.833 349.5,481.5C 348.508,481.328 347.842,481.662 347.5,482.5C 346.5,483.167 345.5,483.833 344.5,484.5C 343.833,483.167 343.167,483.167 342.5,484.5C 341.209,484.263 340.209,484.596 339.5,485.5C 337.214,485.595 335.214,486.262 333.5,487.5C 331.901,487.232 330.568,487.566 329.5,488.5C 322.816,489.655 316.149,489.655 309.5,488.5C 310.683,476.344 310.683,464.344 309.5,452.5C 309.549,449.901 310.549,447.734 312.5,446C 319.475,445.473 326.141,443.806 332.5,441C 332.167,440.667 331.833,440.333 331.5,440C 332.672,439.581 333.672,438.915 334.5,438C 335.449,437.383 336.282,437.549 337,438.5C 337.189,436.205 338.523,434.205 341,432.5C 341.333,433.167 341.667,433.833 342,434.5C 352.381,418.805 354.048,402.139 347,384.5C 342.755,372.586 335.755,362.586 326,354.5C 325.586,354.957 325.086,355.291 324.5,355.5C 323.3,354.469 321.966,353.635 320.5,353C 320.167,352 319.833,351 319.5,350C 317.925,350.379 316.425,350.212 315,349.5C 314.667,350.167 314.333,350.833 314,351.5C 313.667,349.833 313.333,348.167 313,346.5C 312.268,351.661 311.434,356.661 310.5,361.5C 312.457,344.428 314.123,327.928 315.5,312C 314.671,310.184 313.837,308.351 313,306.5C 309.888,303.899 307.388,300.899 305.5,297.5 Z"/></g>
<g><path style="opacity:1" fill="#fafafa" d="M 225.5,300.5 C 231.983,304.44 236.316,310.107 238.5,317.5C 235.573,332.468 232.906,347.468 230.5,362.5C 229.732,363.263 229.232,364.263 229,365.5C 224.08,353.481 220.247,341.148 217.5,328.5C 217.351,327.448 217.517,326.448 218,325.5C 218.582,328.668 219.582,329.001 221,326.5C 221.487,320.147 222.153,313.814 223,307.5C 223.39,304.896 224.224,302.562 225.5,300.5 Z"/></g>
<g><path style="opacity:1" fill="#fafafa" d="M 271.5,311.5 C 268.728,330.674 263.395,349.007 255.5,366.5C 251.169,350.519 246.836,334.519 242.5,318.5C 245.43,310.951 250.43,305.284 257.5,301.5C 258.222,301.082 258.722,300.416 259,299.5C 260.917,306.336 262.75,313.169 264.5,320C 265.449,320.617 266.282,320.451 267,319.5C 268.492,316.105 269.992,313.439 271.5,311.5 Z"/></g>
<g><path style="opacity:0.004" fill="#7c6450" d="M 188.5,304.5 C 189.833,305.167 189.833,305.167 188.5,304.5 Z"/></g>
<g><path style="opacity:0.004" fill="#6f584a" d="M 323.5,303.5 C 323.56,302.957 323.893,302.624 324.5,302.5C 326.911,303.361 328.911,304.694 330.5,306.5C 329.833,306.5 329.5,306.833 329.5,307.5C 328.833,307.5 328.5,307.167 328.5,306.5C 327.833,306.5 327.5,306.167 327.5,305.5C 327.167,305.5 326.833,305.5 326.5,305.5C 326.167,304.167 325.833,304.167 325.5,305.5C 324.833,305.5 324.5,305.167 324.5,304.5C 323.833,304.5 323.5,304.167 323.5,303.5 Z"/></g>
<g><path style="opacity:1" fill="#261f2f" d="M 193.5,323.5 C 193.607,337.863 194.274,352.696 195.5,368C 195.56,379.686 195.394,391.852 195,404.5C 192.271,423.48 188.771,442.314 184.5,461C 184.994,462.462 185.327,463.962 185.5,465.5C 184.75,473.498 184.084,481.498 183.5,489.5C 197.167,489.5 210.833,489.5 224.5,489.5C 235.833,489.5 247.167,489.5 258.5,489.5C 272.167,489.5 285.833,489.5 299.5,489.5C 299.232,487.901 299.566,486.568 300.5,485.5C 300.5,487.167 300.5,488.833 300.5,490.5C 261.5,490.5 222.5,490.5 183.5,490.5C 182.833,490.5 182.5,490.167 182.5,489.5C 182.599,486.763 182.265,484.096 181.5,481.5C 180.742,483.981 180.742,486.648 181.5,489.5C 180.732,488.737 180.232,487.737 180,486.5C 179.79,488.058 179.29,489.391 178.5,490.5C 178.167,490.5 177.833,490.5 177.5,490.5C 168.167,490.5 158.833,490.5 149.5,490.5C 146.592,488.395 143.258,487.395 139.5,487.5C 140.509,483.128 141.842,478.795 143.5,474.5C 145.277,471.495 146.277,468.162 146.5,464.5C 148.416,460.837 149.416,456.837 149.5,452.5C 150.451,451.081 150.784,449.415 150.5,447.5C 151.451,446.081 151.784,444.415 151.5,442.5C 152.461,440.735 152.795,438.735 152.5,436.5C 154.011,433.456 154.678,430.122 154.5,426.5C 155.461,424.735 155.795,422.735 155.5,420.5C 156.903,417.091 157.57,413.425 157.5,409.5C 158.461,407.735 158.795,405.735 158.5,403.5C 160.246,398.428 161.246,393.095 161.5,387.5C 163.118,382.744 164.118,377.744 164.5,372.5C 165.451,371.081 165.784,369.415 165.5,367.5C 167.102,363.761 168.102,359.761 168.5,355.5C 169.768,353.095 170.435,350.428 170.5,347.5C 172.277,344.495 173.277,341.162 173.5,337.5C 174.931,336.22 175.598,334.553 175.5,332.5C 176.404,331.791 176.737,330.791 176.5,329.5C 179.306,324.563 182.139,319.563 185,314.5C 186.704,312.627 188.537,310.96 190.5,309.5C 191.807,308.847 193.14,308.18 194.5,307.5C 198.47,309.392 198.137,310.392 193.5,310.5C 193.5,314.833 193.5,319.167 193.5,323.5 Z M 182.5,481.5 C 182.167,481.5 181.833,481.5 181.5,481.5C 181.804,478.478 182.304,475.478 183,472.5C 183.41,475.846 183.243,478.846 182.5,481.5 Z M 181.5,481.5 C 182.265,484.096 182.599,486.763 182.5,489.5C 182.167,489.5 181.833,489.5 181.5,489.5C 180.742,486.648 180.742,483.981 181.5,481.5 Z"/></g>
<g><path style="opacity:0.012" fill="#624e45" d="M 176.5,329.5 C 175.475,329.103 175.308,328.437 176,327.5C 176.464,328.094 176.631,328.761 176.5,329.5 Z"/></g>
<g><path style="opacity:0.004" fill="#6f594b" d="M 175.5,332.5 C 175.167,332.5 174.833,332.5 174.5,332.5C 174.833,329.833 175.167,329.833 175.5,332.5 Z"/></g>
<g><path style="opacity:0.012" fill="#624e45" d="M 174.5,332.5 C 174.631,333.239 174.464,333.906 174,334.5C 173.308,333.563 173.475,332.897 174.5,332.5 Z"/></g>
<g><path style="opacity:0.012" fill="#54443f" d="M 173.5,337.5 C 172.475,337.103 172.308,336.437 173,335.5C 173.464,336.094 173.631,336.761 173.5,337.5 Z"/></g>
<g><path style="opacity:0.012" fill="#54443f" d="M 171.5,338.5 C 172.525,338.897 172.692,339.563 172,340.5C 171.536,339.906 171.369,339.239 171.5,338.5 Z"/></g>
<g><path style="opacity:0.012" fill="#54443f" d="M 368.5,343.5 C 369.833,344.167 369.833,344.167 368.5,343.5 Z"/></g>
<g><path style="opacity:0.012" fill="#5e4b44" d="M 170.5,347.5 C 169.427,346.749 169.26,345.749 170,344.5C 170.483,345.448 170.649,346.448 170.5,347.5 Z"/></g>
<g><path style="opacity:0.012" fill="#54443f" d="M 168.5,348.5 C 169.525,348.897 169.692,349.563 169,350.5C 168.536,349.906 168.369,349.239 168.5,348.5 Z"/></g>
<g><path style="opacity:0.012" fill="#54443f" d="M 371.5,348.5 C 372.833,349.167 372.833,349.167 371.5,348.5 Z"/></g>
<g><path style="opacity:0.012" fill="#645046" d="M 168.5,355.5 C 168.167,355.5 167.833,355.5 167.5,355.5C 167.833,350.167 168.167,350.167 168.5,355.5 Z"/></g>
<g><path style="opacity:0.012" fill="#5e4b44" d="M 167.5,355.5 C 167.649,356.552 167.483,357.552 167,358.5C 166.26,357.251 166.427,356.251 167.5,355.5 Z"/></g>
<g><path style="opacity:0.004" fill="#6f594b" d="M 377.5,359.5 C 377.167,359.5 376.833,359.5 376.5,359.5C 376.833,356.833 377.167,356.833 377.5,359.5 Z"/></g>
<g><path style="opacity:0.012" fill="#54443f" d="M 377.5,359.5 C 378.833,360.167 378.833,360.167 377.5,359.5 Z"/></g>
<g><path style="opacity:0.012" fill="#54443f" d="M 378.5,361.5 C 379.833,362.167 379.833,362.167 378.5,361.5 Z"/></g>
<g><path style="opacity:0.012" fill="#5c4a43" d="M 165.5,367.5 C 164.402,366.399 164.235,365.066 165,363.5C 165.49,364.793 165.657,366.127 165.5,367.5 Z"/></g>
<g><path style="opacity:0.012" fill="#645046" d="M 164.5,372.5 C 164.167,372.5 163.833,372.5 163.5,372.5C 163.833,367.167 164.167,367.167 164.5,372.5 Z"/></g>
<g><path style="opacity:0.012" fill="#624e45" d="M 382.5,371.5 C 382.369,370.761 382.536,370.094 383,369.5C 383.692,370.437 383.525,371.103 382.5,371.5 Z"/></g>
<g><path style="opacity:0.012" fill="#5c4a43" d="M 163.5,372.5 C 163.657,373.873 163.49,375.207 163,376.5C 162.235,374.934 162.402,373.601 163.5,372.5 Z"/></g>
<g><path style="opacity:0.012" fill="#624e45" d="M 384.5,376.5 C 384.369,375.761 384.536,375.094 385,374.5C 385.692,375.437 385.525,376.103 384.5,376.5 Z"/></g>
<g><path style="opacity:0.012" fill="#624e45" d="M 161.5,387.5 C 160.387,386.054 160.22,384.387 161,382.5C 161.494,384.134 161.66,385.801 161.5,387.5 Z"/></g>
<g><path style="opacity:0.012" fill="#5e4b44" d="M 388.5,388.5 C 388.351,387.448 388.517,386.448 389,385.5C 389.74,386.749 389.573,387.749 388.5,388.5 Z"/></g>
<g><path style="opacity:0.012" fill="#5c4a43" d="M 159.5,388.5 C 160.598,389.601 160.765,390.934 160,392.5C 159.51,391.207 159.343,389.873 159.5,388.5 Z"/></g>
<g><path style="opacity:0.012" fill="#5c4a43" d="M 390.5,396.5 C 390.343,395.127 390.51,393.793 391,392.5C 391.765,394.066 391.598,395.399 390.5,396.5 Z"/></g>
<g><path style="opacity:0.012" fill="#624e45" d="M 391.5,402.5 C 391.34,400.801 391.506,399.134 392,397.5C 392.78,399.387 392.613,401.054 391.5,402.5 Z"/></g>
<g><path style="opacity:0.012" fill="#5b4942" d="M 158.5,403.5 C 157.387,402.054 157.22,400.387 158,398.5C 158.494,400.134 158.66,401.801 158.5,403.5 Z"/></g>
<g><path style="opacity:0.012" fill="#5c4a43" d="M 392.5,403.5 C 393.638,406.304 393.805,409.304 393,412.5C 392.502,409.518 392.335,406.518 392.5,403.5 Z"/></g>
<g><path style="opacity:0.012" fill="#624e45" d="M 157.5,409.5 C 156.387,408.054 156.22,406.387 157,404.5C 157.494,406.134 157.66,407.801 157.5,409.5 Z"/></g>
<g><path style="opacity:0.012" fill="#54443f" d="M 155.5,410.5 C 156.598,411.601 156.765,412.934 156,414.5C 155.51,413.207 155.343,411.873 155.5,410.5 Z"/></g>
<g><path style="opacity:0.012" fill="#5b4942" d="M 155.5,420.5 C 154.387,419.054 154.22,417.387 155,415.5C 155.494,417.134 155.66,418.801 155.5,420.5 Z"/></g>
<g><path style="opacity:1" fill="#615d6a" d="M 240.5,416.5 C 245.328,416.385 246.661,418.552 244.5,423C 238.678,423.518 237.344,421.351 240.5,416.5 Z"/></g>
<g><path style="opacity:0.012" fill="#594741" d="M 392.5,419.5 C 393.634,421.966 393.801,424.633 393,427.5C 392.503,424.854 392.336,422.187 392.5,419.5 Z"/></g>
<g><path style="opacity:0.012" fill="#624e45" d="M 154.5,426.5 C 153.387,425.054 153.22,423.387 154,421.5C 154.494,423.134 154.66,424.801 154.5,426.5 Z"/></g>
<g><path style="opacity:0.012" fill="#54443f" d="M 152.5,427.5 C 153.598,428.601 153.765,429.934 153,431.5C 152.51,430.207 152.343,428.873 152.5,427.5 Z"/></g>
<g><path style="opacity:0.012" fill="#5c4a43" d="M 391.5,428.5 C 392.598,429.601 392.765,430.934 392,432.5C 391.51,431.207 391.343,429.873 391.5,428.5 Z"/></g>
<g><path style="opacity:0.012" fill="#5c4a43" d="M 152.5,436.5 C 151.402,435.399 151.235,434.066 152,432.5C 152.49,433.793 152.657,435.127 152.5,436.5 Z"/></g>
<g><path style="opacity:0.012" fill="#5e4b44" d="M 390.5,433.5 C 391.573,434.251 391.74,435.251 391,436.5C 390.517,435.552 390.351,434.552 390.5,433.5 Z"/></g>
<g><path style="opacity:0.012" fill="#54443f" d="M 389.5,437.5 C 390.525,437.897 390.692,438.563 390,439.5C 389.536,438.906 389.369,438.239 389.5,437.5 Z"/></g>
<g><path style="opacity:0.012" fill="#54443f" d="M 151.5,442.5 C 150.402,441.399 150.235,440.066 151,438.5C 151.49,439.793 151.657,441.127 151.5,442.5 Z"/></g>
<g><path style="opacity:1" fill="#1d0f1e" d="M 258.5,489.5 C 247.167,489.5 235.833,489.5 224.5,489.5C 225.234,488.292 225.567,486.959 225.5,485.5C 226.822,485.67 227.989,485.337 229,484.5C 229.333,481.167 229.667,477.833 230,474.5C 233.411,462.598 237.411,450.932 242,439.5C 245.868,450.771 249.535,462.105 253,473.5C 253.499,477.486 253.666,481.486 253.5,485.5C 254.833,485.5 256.167,485.5 257.5,485.5C 257.433,486.959 257.766,488.292 258.5,489.5 Z"/></g>
<g><path style="opacity:0.004" fill="#6f594b" d="M 388.5,442.5 C 388.369,441.761 388.536,441.094 389,440.5C 389.692,441.437 389.525,442.103 388.5,442.5 Z"/></g>
<g><path style="opacity:0.012" fill="#54443f" d="M 387.5,442.5 C 387.833,442.5 388.167,442.5 388.5,442.5C 388.167,445.167 387.833,445.167 387.5,442.5 Z"/></g>
<g><path style="opacity:0.012" fill="#54443f" d="M 150.5,447.5 C 149.402,446.399 149.235,445.066 150,443.5C 150.49,444.793 150.657,446.127 150.5,447.5 Z"/></g>
<g><path style="opacity:0.012" fill="#54443f" d="M 386.5,445.5 C 387.833,446.167 387.833,446.167 386.5,445.5 Z"/></g>
<g><path style="opacity:0.012" fill="#604c44" d="M 305.5,451.5 C 305.5,451.833 305.5,452.167 305.5,452.5C 304.833,452.5 304.5,452.833 304.5,453.5C 304.167,453.5 303.833,453.5 303.5,453.5C 303.336,450.813 303.503,448.146 304,445.5C 304.191,447.708 304.691,449.708 305.5,451.5 Z"/></g>
<g><path style="opacity:0.012" fill="#54443f" d="M 385.5,447.5 C 386.833,448.167 386.833,448.167 385.5,447.5 Z"/></g>
<g><path style="opacity:0.012" fill="#645046" d="M 149.5,452.5 C 148.402,451.399 148.235,450.066 149,448.5C 149.49,449.793 149.657,451.127 149.5,452.5 Z"/></g>
<g><path style="opacity:0.012" fill="#54443f" d="M 384.5,449.5 C 385.833,450.167 385.833,450.167 384.5,449.5 Z"/></g>
<g><path style="opacity:0.004" fill="#715a4c" d="M 308.5,452.5 C 308.167,452.5 307.833,452.5 307.5,452.5C 307.158,451.662 306.492,451.328 305.5,451.5C 307.649,448.666 308.649,448.999 308.5,452.5 Z"/></g>
<g><path style="opacity:0.004" fill="#7c6450" d="M 383.5,450.5 C 383.833,450.5 384.167,450.5 384.5,450.5C 384.672,451.492 384.338,452.158 383.5,452.5C 383.5,451.833 383.5,451.167 383.5,450.5 Z"/></g>
<g><path style="opacity:0.992" fill="#f9f6f3" d="M 305.5,452.5 C 306.167,452.5 306.833,452.5 307.5,452.5C 307.833,452.5 308.167,452.5 308.5,452.5C 308.833,452.5 309.167,452.5 309.5,452.5C 310.683,464.344 310.683,476.344 309.5,488.5C 309.167,488.5 308.833,488.5 308.5,488.5C 308.167,488.5 307.833,488.5 307.5,488.5C 307.167,488.5 306.833,488.5 306.5,488.5C 305.522,476.914 305.189,465.247 305.5,453.5C 305.5,453.167 305.5,452.833 305.5,452.5 Z"/></g>
<g><path style="opacity:0.012" fill="#54443f" d="M 382.5,452.5 C 382.833,452.5 383.167,452.5 383.5,452.5C 383.315,453.17 382.981,453.17 382.5,452.5 Z"/></g>
<g><path style="opacity:0.012" fill="#54443f" d="M 147.5,453.5 C 148.573,454.251 148.74,455.251 148,456.5C 147.517,455.552 147.351,454.552 147.5,453.5 Z"/></g>
<g><path style="opacity:1" fill="#eacea8" d="M 302.5,453.5 C 302.833,453.5 303.167,453.5 303.5,453.5C 303.833,453.5 304.167,453.5 304.5,453.5C 304.833,453.5 305.167,453.5 305.5,453.5C 305.189,465.247 305.522,476.914 306.5,488.5C 306.5,488.833 306.5,489.167 306.5,489.5C 305.833,489.5 305.5,489.833 305.5,490.5C 304.833,490.5 304.167,490.5 303.5,490.5C 302.5,490.5 301.5,490.5 300.5,490.5C 300.5,488.833 300.5,487.167 300.5,485.5C 300.589,474.743 301.256,464.076 302.5,453.5 Z"/></g>
<g><path style="opacity:0.012" fill="#54443f" d="M 381.5,454.5 C 382.833,455.167 382.833,455.167 381.5,454.5 Z"/></g>
<g><path style="opacity:0.012" fill="#54443f" d="M 380.5,455.5 C 380.833,455.5 381.167,455.5 381.5,455.5C 381.315,456.17 380.981,456.17 380.5,455.5 Z"/></g>
<g><path style="opacity:0.012" fill="#54443f" d="M 146.5,457.5 C 147.573,458.251 147.74,459.251 147,460.5C 146.517,459.552 146.351,458.552 146.5,457.5 Z"/></g>
<g><path style="opacity:0.004" fill="#6f594b" d="M 379.5,456.5 C 379.833,456.5 380.167,456.5 380.5,456.5C 380.672,457.492 380.338,458.158 379.5,458.5C 379.5,457.833 379.5,457.167 379.5,456.5 Z"/></g>
<g><path style="opacity:0.012" fill="#54443f" d="M 378.5,458.5 C 378.833,458.5 379.167,458.5 379.5,458.5C 379.315,459.17 378.981,459.17 378.5,458.5 Z"/></g>
<g><path style="opacity:0.012" fill="#54443f" d="M 377.5,459.5 C 377.833,459.5 378.167,459.5 378.5,459.5C 378.315,460.17 377.981,460.17 377.5,459.5 Z"/></g>
<g><path style="opacity:0.012" fill="#54443f" d="M 376.5,460.5 C 376.833,460.5 377.167,460.5 377.5,460.5C 377.315,461.17 376.981,461.17 376.5,460.5 Z"/></g>
<g><path style="opacity:0.012" fill="#54443f" d="M 375.5,461.5 C 375.833,461.5 376.167,461.5 376.5,461.5C 376.315,462.17 375.981,462.17 375.5,461.5 Z"/></g>
<g><path style="opacity:0.012" fill="#5e4b44" d="M 146.5,464.5 C 145.427,463.749 145.26,462.749 146,461.5C 146.483,462.448 146.649,463.448 146.5,464.5 Z"/></g>
<g><path style="opacity:0.004" fill="#755e4d" d="M 374.5,462.5 C 374.833,462.5 375.167,462.5 375.5,462.5C 374.5,465.5 372.5,467.5 369.5,468.5C 369.5,468.167 369.5,467.833 369.5,467.5C 370.167,467.5 370.5,467.167 370.5,466.5C 371.167,465.167 372.167,464.167 373.5,463.5C 374.167,463.5 374.5,463.167 374.5,462.5 Z"/></g>
<g><path style="opacity:0.012" fill="#54443f" d="M 368.5,468.5 C 368.833,468.5 369.167,468.5 369.5,468.5C 369.315,469.17 368.981,469.17 368.5,468.5 Z"/></g>
<g><path style="opacity:0.012" fill="#54443f" d="M 367.5,469.5 C 367.833,469.5 368.167,469.5 368.5,469.5C 368.315,470.17 367.981,470.17 367.5,469.5 Z"/></g>
<g><path style="opacity:0.012" fill="#54443f" d="M 366.5,470.5 C 366.833,470.5 367.167,470.5 367.5,470.5C 367.315,471.17 366.981,471.17 366.5,470.5 Z"/></g>
<g><path style="opacity:1" fill="#73595f" d="M 234.5,471.5 C 239.5,471.5 244.5,471.5 249.5,471.5C 249.5,475.833 249.5,480.167 249.5,484.5C 244.5,484.5 239.5,484.5 234.5,484.5C 234.5,480.167 234.5,475.833 234.5,471.5 Z"/></g>
<g><path style="opacity:0.012" fill="#54443f" d="M 365.5,471.5 C 365.833,471.5 366.167,471.5 366.5,471.5C 366.315,472.17 365.981,472.17 365.5,471.5 Z"/></g>
<g><path style="opacity:0.012" fill="#5e4b44" d="M 143.5,474.5 C 143.167,474.5 142.833,474.5 142.5,474.5C 142.833,470.5 143.167,470.5 143.5,474.5 Z"/></g>
<g><path style="opacity:0.012" fill="#54443f" d="M 362.5,473.5 C 362.833,473.5 363.167,473.5 363.5,473.5C 363.315,474.17 362.981,474.17 362.5,473.5 Z"/></g>
<g><path style="opacity:0.012" fill="#624e45" d="M 142.5,474.5 C 142.631,475.239 142.464,475.906 142,476.5C 141.308,475.563 141.475,474.897 142.5,474.5 Z"/></g>
<g><path style="opacity:0.004" fill="#70594b" d="M 353.5,478.5 C 354.167,478.5 354.5,478.833 354.5,479.5C 353.341,481.25 351.674,482.25 349.5,482.5C 349.5,482.167 349.5,481.833 349.5,481.5C 350.167,481.5 350.5,481.167 350.5,480.5C 350.5,479.833 350.833,479.5 351.5,479.5C 351.833,480.833 352.167,480.833 352.5,479.5C 352.5,478.833 352.833,478.5 353.5,478.5 Z"/></g>
<g><path style="opacity:0.004" fill="#6f594b" d="M 347.5,482.5 C 348.167,482.5 348.833,482.5 349.5,482.5C 348.833,483.833 348.167,483.833 347.5,482.5 Z"/></g>
<g><path style="opacity:0.012" fill="#5f4c44" d="M 137.5,482.5 C 138.629,484.628 138.796,486.961 138,489.5C 137.503,487.19 137.337,484.857 137.5,482.5 Z"/></g>
<g><path style="opacity:0.012" fill="#54443f" d="M 342.5,485.5 C 342.5,485.167 342.5,484.833 342.5,484.5C 343.167,484.5 343.833,484.5 344.5,484.5C 344.158,485.338 343.492,485.672 342.5,485.5 Z"/></g>
<g><path style="opacity:0.012" fill="#685348" d="M 339.5,486.5 C 339.5,486.167 339.5,485.833 339.5,485.5C 340.5,485.5 341.5,485.5 342.5,485.5C 341.791,486.404 340.791,486.737 339.5,486.5 Z"/></g>
<g><path style="opacity:0.012" fill="#54443f" d="M 339.5,486.5 C 339.103,487.525 338.437,487.692 337.5,487C 338.094,486.536 338.761,486.369 339.5,486.5 Z"/></g>
<g><path style="opacity:0.828" fill="#eee8e3" d="M 139.5,487.5 C 143.258,487.395 146.592,488.395 149.5,490.5C 148.833,490.5 148.167,490.5 147.5,490.5C 144.833,490.5 142.167,490.5 139.5,490.5C 139.5,489.5 139.5,488.5 139.5,487.5 Z"/></g>
<g><path style="opacity:0.012" fill="#54443f" d="M 333.5,488.5 C 333.5,488.167 333.5,487.833 333.5,487.5C 337.5,487.833 337.5,488.167 333.5,488.5 Z"/></g>
<g><path style="opacity:0.004" fill="#725b4c" d="M 307.5,488.5 C 307.833,488.5 308.167,488.5 308.5,488.5C 309.263,489.268 310.263,489.768 311.5,490C 309.866,490.494 308.199,490.66 306.5,490.5C 306.5,490.167 306.5,489.833 306.5,489.5C 307.167,489.5 307.5,489.167 307.5,488.5 Z"/></g>
<g><path style="opacity:0.012" fill="#5c4a43" d="M 329.5,489.5 C 329.5,489.167 329.5,488.833 329.5,488.5C 330.833,488.5 332.167,488.5 333.5,488.5C 332.432,489.434 331.099,489.768 329.5,489.5 Z"/></g>
<g><path style="opacity:0.012" fill="#624e45" d="M 329.5,489.5 C 328.054,490.613 326.387,490.78 324.5,490C 326.134,489.506 327.801,489.34 329.5,489.5 Z"/></g>
<g><path style="opacity:0.012" fill="#564540" d="M 147.5,490.5 C 148.167,490.5 148.833,490.5 149.5,490.5C 158.833,491.833 168.167,491.833 177.5,490.5C 177.833,490.5 178.167,490.5 178.5,490.5C 172.537,491.83 166.204,492.496 159.5,492.5C 153.167,492.333 146.833,492.167 140.5,492C 143.036,491.814 145.369,491.314 147.5,490.5 Z"/></g>
<g><path style="opacity:0.012" fill="#5c4943" d="M 312.5,491.5 C 315.64,490.359 318.973,490.192 322.5,491C 319.183,491.498 315.85,491.665 312.5,491.5 Z"/></g>
<g><path style="opacity:0.012" fill="#564540" d="M 181.5,489.5 C 181.833,489.5 182.167,489.5 182.5,489.5C 182.5,490.167 182.833,490.5 183.5,490.5C 223.5,491.833 263.5,491.833 303.5,490.5C 304.167,490.5 304.833,490.5 305.5,490.5C 305.833,490.5 306.167,490.5 306.5,490.5C 306.389,491.117 306.056,491.617 305.5,492C 264.5,492.667 223.5,492.667 182.5,492C 181.748,491.329 181.414,490.496 181.5,489.5 Z"/></g>
</svg>
